<svg width="1584" height="396" viewBox="0 0 1584 396" fill="none" xmlns="http://www.w3.org/2000/svg">
<rect width="1584" height="396" fill="#F5F5F5"/>
<g id="Awesome banner" clip-path="url(#clip0_0_1)">
<rect width="1584" height="396" fill="url(#paint0_linear_0_1)"/>
<ellipse id="Ellipse 2" cx="323" cy="64" rx="285" ry="288" fill="url(#paint1_linear_0_1)" fill-opacity="0.1"/>
<g id="copyright">
<path d="M75.95 334.52L72.30 334.52L72.30 311.16L77.20 311.16L83.70 330.04Q83.60 329.02 83.50 327.62Q83.41 326.23 83.33 324.79Q83.25 323.35 83.25 322.23L83.25 311.16L86.90 311.16L86.90 334.52L82 334.52L75.57 315.64Q75.63 316.57 75.73 317.88Q75.82 319.19 75.89 320.57Q75.95 321.94 75.95 323.10L75.95 334.52M98.80 334.84Q96.46 334.84 94.67 333.96Q92.88 333.08 91.89 331.53Q90.90 329.98 90.90 327.93Q90.90 325.78 92.13 324.18Q93.36 322.58 95.34 322.17L95.34 322.10Q93.65 321.75 92.61 320.38Q91.57 319 91.57 317.11Q91.57 315.26 92.48 313.85Q93.39 312.44 95.02 311.64Q96.66 310.84 98.80 310.84Q100.94 310.84 102.59 311.64Q104.24 312.44 105.15 313.85Q106.06 315.26 106.06 317.11Q106.06 319 105.01 320.38Q103.95 321.75 102.26 322.10L102.26 322.17Q104.24 322.58 105.47 324.18Q106.70 325.78 106.70 327.93Q106.70 329.98 105.71 331.53Q104.72 333.08 102.93 333.96Q101.14 334.84 98.80 334.84M98.80 320.73Q100.30 320.73 101.23 319.82Q102.16 318.90 102.16 317.46Q102.16 315.99 101.23 315.08Q100.30 314.17 98.80 314.17Q97.30 314.17 96.37 315.08Q95.44 315.99 95.44 317.46Q95.44 318.90 96.37 319.82Q97.30 320.73 98.80 320.73M98.80 331.45Q100.56 331.45 101.68 330.42Q102.80 329.40 102.80 327.74Q102.80 326.04 101.68 325Q100.56 323.96 98.80 323.96Q97.04 323.96 95.92 325Q94.80 326.04 94.80 327.74Q94.80 329.40 95.92 330.42Q97.04 331.45 98.80 331.45M114.35 334.52L110.70 334.52L110.70 311.16L115.60 311.16L122.10 330.04Q122 329.02 121.90 327.62Q121.81 326.23 121.73 324.79Q121.65 323.35 121.65 322.23L121.65 311.16L125.30 311.16L125.30 334.52L120.40 334.52L113.97 315.64Q114.03 316.57 114.13 317.88Q114.22 319.19 114.29 320.57Q114.35 321.94 114.35 323.10" fill="white" fill-opacity="0.9"/>
<path d="M161.48 325.24L151.24 325.24L151.24 322.68L161.48 322.68" fill="white" fill-opacity="0.9"/>
<path d="M195.02 334.84Q191.82 334.84 189.96 333.05Q188.11 331.26 188.11 328.12L188.11 317.56Q188.11 314.42 189.96 312.63Q191.82 310.84 195.02 310.84Q198.15 310.84 200.01 312.65Q201.87 314.46 201.87 317.56L198.99 317.56Q198.99 315.58 197.95 314.50Q196.91 313.43 195.02 313.43Q193.13 313.43 192.06 314.50Q190.99 315.58 190.99 317.56L190.99 328.12Q190.99 330.10 192.06 331.18Q193.13 332.25 195.02 332.25Q196.91 332.25 197.95 331.18Q198.99 330.10 198.99 328.12L201.87 328.12Q201.87 331.22 200.01 333.03Q198.15 334.84 195.02 334.84" fill="white" fill-opacity="0.9"/>
<path d="M213.96 334.84Q210.83 334.84 209 333.02Q207.18 331.19 207.18 327.80L207.18 317.88Q207.18 314.49 209 312.66Q210.83 310.84 213.96 310.84Q217.10 310.84 218.92 312.66Q220.75 314.49 220.75 317.85L220.75 327.80Q220.75 331.19 218.92 333.02Q217.10 334.84 213.96 334.84M213.96 332.25Q215.85 332.25 216.86 331.18Q217.87 330.10 217.87 328.12L217.87 317.56Q217.87 315.58 216.86 314.50Q215.85 313.43 213.96 313.43Q212.11 313.43 211.08 314.50Q210.06 315.58 210.06 317.56L210.06 328.12Q210.06 330.10 211.08 331.18Q212.11 332.25 213.96 332.25" fill="white" fill-opacity="0.9"/>
<path d="M228.65 334.52L225.87 334.52L225.87 311.16L230.12 311.16L233.10 321.27L236.20 311.16L240.46 311.16L240.46 334.52L237.67 334.52L237.67 323.48Q237.67 321.91 237.72 319.88Q237.77 317.85 237.87 315.77Q237.96 313.69 238.09 312.02L234.31 324.09L231.82 324.09L228.20 312.31Q228.46 314.68 228.55 317.50Q228.65 320.31 228.65 323.48" fill="white" fill-opacity="0.9"/>
<path d="M247.85 334.52L245.07 334.52L245.07 311.16L249.32 311.16L252.30 321.27L255.40 311.16L259.66 311.16L259.66 334.52L256.87 334.52L256.87 323.48Q256.87 321.91 256.92 319.88Q256.97 317.85 257.07 315.77Q257.16 313.69 257.29 312.02L253.51 324.09L251.02 324.09L247.40 312.31Q247.66 314.68 247.75 317.50Q247.85 320.31 247.85 323.48" fill="white" fill-opacity="0.9"/>
<path d="M271.56 334.84Q268.30 334.84 266.57 333.03Q264.84 331.22 264.84 328.12L264.84 311.16L267.72 311.16L267.72 328.12Q267.72 330.04 268.67 331.16Q269.61 332.28 271.56 332.28Q273.48 332.28 274.44 331.16Q275.40 330.04 275.40 328.12L275.40 311.16L278.28 311.16L278.28 328.12Q278.28 331.26 276.57 333.05Q274.86 334.84 271.56 334.84" fill="white" fill-opacity="0.9"/>
<path d="M286.83 334.52L284.04 334.52L284.04 311.16L287.88 311.16L295.02 331.16Q294.95 330.36 294.87 329.19Q294.79 328.02 294.75 326.73Q294.70 325.43 294.70 324.28L294.70 311.16L297.48 311.16L297.48 334.52L293.64 334.52L286.54 314.52Q286.60 315.29 286.67 316.46Q286.73 317.62 286.78 318.92Q286.83 320.22 286.83 321.40" fill="white" fill-opacity="0.9"/>
<path d="M316.20 334.52L303.72 334.52L303.72 331.90L308.49 331.90L308.49 313.78L303.72 313.78L303.72 311.16L316.20 311.16L316.20 313.78L311.43 313.78L311.43 331.90L316.20 331.90" fill="white" fill-opacity="0.9"/>
<path d="M330.60 334.52L327.72 334.52L327.72 313.78L321.32 313.78L321.32 311.16L337 311.16L337 313.78L330.60 313.78" fill="white" fill-opacity="0.9"/>
<path d="M349.80 334.52L346.92 334.52L346.92 325.78L339.88 311.16L342.95 311.16L347.50 320.76Q347.88 321.56 348.11 322.12Q348.33 322.68 348.39 322.94Q348.46 322.68 348.70 322.12Q348.94 321.56 349.32 320.76L353.87 311.16L356.84 311.16L349.80 325.78" fill="white" fill-opacity="0.9"/>
<path d="M382.83 334.52L380.04 334.52L380.04 311.16L383.88 311.16L391.02 331.16Q390.95 330.36 390.87 329.19Q390.79 328.02 390.75 326.73Q390.70 325.43 390.70 324.28L390.70 311.16L393.48 311.16L393.48 334.52L389.64 334.52L382.54 314.52Q382.60 315.29 382.67 316.46Q382.73 317.62 382.78 318.92Q382.83 320.22 382.83 321.40" fill="white" fill-opacity="0.9"/>
<path d="M405.96 334.84Q402.83 334.84 401 333.02Q399.18 331.19 399.18 327.80L399.18 317.88Q399.18 314.49 401 312.66Q402.83 310.84 405.96 310.84Q409.10 310.84 410.92 312.66Q412.75 314.49 412.75 317.85L412.75 327.80Q412.75 331.19 410.92 333.02Q409.10 334.84 405.96 334.84M405.96 332.25Q407.85 332.25 408.86 331.18Q409.87 330.10 409.87 328.12L409.87 317.56Q409.87 315.58 408.86 314.50Q407.85 313.43 405.96 313.43Q404.11 313.43 403.08 314.50Q402.06 315.58 402.06 317.56L402.06 328.12Q402.06 330.10 403.08 331.18Q404.11 332.25 405.96 332.25" fill="white" fill-opacity="0.9"/>
<path d="M424.55 334.52L418.51 334.52L418.51 311.16L424.55 311.16Q426.83 311.16 428.47 312.02Q430.12 312.89 431.03 314.46Q431.95 316.02 431.95 318.17L431.95 327.48Q431.95 329.62 431.03 331.21Q430.12 332.79 428.47 333.66Q426.83 334.52 424.55 334.52M421.39 313.72L421.39 331.96L424.55 331.96Q426.67 331.96 427.87 330.78Q429.07 329.59 429.07 327.48L429.07 318.17Q429.07 316.09 427.87 314.90Q426.67 313.72 424.55 313.72" fill="white" fill-opacity="0.9"/>
<path d="M451.40 334.52L437.96 334.52L437.96 311.16L451.40 311.16L451.40 313.78L440.81 313.78L440.81 321.02L450.28 321.02L450.28 323.58L440.81 323.58L440.81 331.90L451.40 331.90" fill="white" fill-opacity="0.9"/>
<path d="M463.69 334.84Q460.30 334.84 458.28 333.05Q456.27 331.26 456.27 328.12L459.15 328.12Q459.15 330.07 460.39 331.18Q461.64 332.28 463.69 332.28Q465.67 332.28 466.86 331.13Q468.04 329.98 468.04 328.12Q468.04 326.71 467.29 325.67Q466.54 324.63 465.13 324.25L461.58 323.26Q459.37 322.62 458.11 320.97Q456.84 319.32 456.84 317.08Q456.84 315.22 457.67 313.82Q458.51 312.41 460.01 311.62Q461.51 310.84 463.47 310.84Q465.45 310.84 466.97 311.62Q468.49 312.41 469.35 313.80Q470.22 315.19 470.22 317.02L467.34 317.02Q467.34 315.42 466.25 314.41Q465.16 313.40 463.47 313.40Q461.77 313.40 460.71 314.41Q459.66 315.42 459.66 317.02Q459.66 318.30 460.35 319.21Q461.03 320.12 462.28 320.47L465.93 321.50Q468.27 322.14 469.56 323.91Q470.86 325.69 470.86 328.12Q470.86 331.19 468.91 333.02Q466.95 334.84 463.69 334.84" fill="white" fill-opacity="0.9"/>
</g>
<path d="M73.41 197.64L71.20 197.64L75.76 180.12L78.66 180.12L83.20 197.64L81.02 197.64L79.86 192.98L74.56 192.98L73.41 197.64M76.34 185.74L74.99 191.16L79.41 191.16L78.06 185.76Q77.68 184.22 77.46 183.19Q77.25 182.16 77.20 181.85Q77.15 182.16 76.94 183.19Q76.72 184.22 76.34 185.74" fill="white" fill-opacity="0.7"/>
<path d="M90.83 197.88Q88.86 197.88 87.68 196.56Q86.49 195.24 86.49 192.98L86.49 189.12Q86.49 186.84 87.66 185.52Q88.84 184.20 90.83 184.20Q92.32 184.20 93.29 184.94Q94.26 185.69 94.46 186.96L94.48 186.96L94.43 183.96L94.43 180.12L96.59 180.12L96.59 197.64L94.43 197.64L94.43 195.12L94.41 195.12Q94.24 196.42 93.28 197.15Q92.32 197.88 90.83 197.88M91.55 196.01Q92.90 196.01 93.66 195.17Q94.43 194.33 94.43 192.84L94.43 189.24Q94.43 187.75 93.66 186.91Q92.90 186.07 91.55 186.07Q90.18 186.07 89.42 186.78Q88.65 187.49 88.65 189.12L88.65 192.96Q88.65 194.57 89.42 195.29Q90.18 196.01 91.55 196.01" fill="white" fill-opacity="0.7"/>
<path d="M105.33 201.96L103.07 201.96L105.02 196.82L100.10 184.44L102.42 184.44L105.54 192.60Q105.74 193.08 105.90 193.61Q106.07 194.14 106.14 194.52Q106.22 194.14 106.38 193.61Q106.55 193.08 106.72 192.60L109.62 184.44L111.90 184.44" fill="white" fill-opacity="0.7"/>
<path d="M120.40 197.88Q118.07 197.88 116.64 196.48Q115.22 195.07 115.22 192.60L115.22 189.48Q115.22 187.01 116.64 185.60Q118.07 184.20 120.40 184.20Q121.96 184.20 123.12 184.82Q124.29 185.45 124.94 186.58Q125.58 187.70 125.58 189.24L125.58 191.59L117.33 191.59L117.33 192.84Q117.33 194.30 118.17 195.16Q119.01 196.01 120.40 196.01Q121.60 196.01 122.38 195.54Q123.16 195.07 123.33 194.28L125.49 194.28Q125.27 195.94 123.88 196.91Q122.49 197.88 120.40 197.88M117.33 189.24L117.33 189.91L123.47 189.91L123.47 189.24Q123.47 187.68 122.67 186.83Q121.86 185.98 120.40 185.98Q118.94 185.98 118.13 186.83Q117.33 187.68 117.33 189.24" fill="white" fill-opacity="0.7"/>
<path d="M131.97 197.64L129.81 197.64L129.81 184.44L131.97 184.44L131.97 186.96L131.99 186.96Q132.16 185.64 133.07 184.92Q133.98 184.20 135.50 184.20Q137.49 184.20 138.66 185.42Q139.84 186.65 139.84 188.76L139.84 197.64L137.68 197.64L137.68 189.14Q137.68 187.63 136.92 186.83Q136.17 186.02 134.87 186.02Q133.53 186.02 132.75 186.86Q131.97 187.70 131.97 189.24" fill="white" fill-opacity="0.7"/>
<path d="M161.68 197.64L159.30 197.64L157.14 184.44L159.02 184.44L160.36 193.75Q160.43 194.28 160.50 194.92Q160.58 195.55 160.60 195.96Q160.65 195.55 160.71 194.92Q160.77 194.28 160.86 193.75L162.52 184.44L164.68 184.44L166.34 193.75Q166.43 194.28 166.52 194.92Q166.60 195.55 166.62 195.96Q166.67 195.55 166.74 194.92Q166.82 194.28 166.89 193.75L168.28 184.44L170.06 184.44L167.80 197.64L165.42 197.64L163.91 188.52Q163.82 187.85 163.73 187.09Q163.65 186.34 163.60 185.93Q163.58 186.34 163.48 187.09Q163.38 187.85 163.26 188.52" fill="white" fill-opacity="0.7"/>
<path d="MNaN 197.88Q175.67 197.88 174.24 196.48Q172.82 195.07 172.82 192.60L172.82 189.48Q172.82 187.01 174.24 185.60Q175.67 184.20 NaN 184.20Q179.56 184.20 180.72 184.82Q181.89 185.45 182.54 186.58Q183.18 187.70 183.18 189.24L183.18 191.59L174.93 191.59L174.93 192.84Q174.93 194.30 175.77 195.16Q176.61 196.01 NaN 196.01Q179.20 196.01 179.98 195.54Q180.76 195.07 180.93 194.28L183.09 194.28Q182.87 195.94 181.48 196.91Q180.09 197.88 NaN 197.88M174.93 189.24L174.93 189.91L181.07 189.91L181.07 189.24Q181.07 187.68 180.27 186.83Q179.46 185.98 NaN 185.98Q176.54 185.98 175.73 186.83Q174.93 187.68 174.93 189.24" fill="white" fill-opacity="0.7"/>
<path d="M193.17 197.88Q191.68 197.88 190.72 197.15Q189.76 196.42 189.59 195.12L189.57 195.12L189.57 197.64L187.41 197.64L187.41 180.12L189.57 180.12L189.57 183.96L189.52 186.96L189.54 186.96Q189.74 185.69 190.71 184.94Q191.68 184.20 193.17 184.20Q195.16 184.20 196.34 185.52Q197.51 186.84 197.51 189.12L197.51 192.98Q197.51 195.24 196.34 196.56Q195.16 197.88 193.17 197.88M192.45 196.01Q193.82 196.01 194.58 195.29Q195.35 194.57 195.35 192.96L195.35 189.12Q195.35 187.49 194.58 186.78Q193.82 186.07 192.45 186.07Q191.13 186.07 190.35 186.91Q189.57 187.75 189.57 189.24L189.57 192.84Q189.57 194.33 190.35 195.17Q191.13 196.01 192.45 196.01" fill="white" fill-opacity="0.7"/>
<path d="M203.97 197.64L201.81 197.64L201.81 180.12L203.97 180.12L203.97 186.96L203.99 186.96Q204.16 185.64 205.07 184.92Q205.98 184.20 207.50 184.20Q209.49 184.20 210.66 185.42Q211.84 186.65 211.84 188.76L211.84 197.64L209.68 197.64L209.68 189.12Q209.68 187.63 208.92 186.83Q208.17 186.02 206.87 186.02Q205.53 186.02 204.75 186.86Q203.97 187.70 203.97 189.24" fill="white" fill-opacity="0.7"/>
<path d="M221.20 197.83Q218.82 197.83 217.42 196.44Q216.02 195.05 216.02 192.55L216.02 189.53Q216.02 187.01 217.41 185.63Q218.80 184.25 221.20 184.25Q223.60 184.25 224.99 185.63Q226.38 187.01 226.38 189.53L226.38 192.55Q226.38 195.05 224.98 196.44Q223.58 197.83 221.20 197.83M221.20 195.91Q222.62 195.91 223.42 195.12Q224.22 194.33 224.22 192.79L224.22 189.29Q224.22 187.75 223.42 186.96Q222.62 186.17 221.20 186.17Q219.81 186.17 218.99 186.96Q218.18 187.75 218.18 189.29L218.18 192.79Q218.18 194.33 218.99 195.12Q219.81 195.91 221.20 195.91" fill="white" fill-opacity="0.7"/>
<path d="M235.60 197.83Q233.22 197.83 231.82 196.44Q230.42 195.05 230.42 192.55L230.42 189.53Q230.42 187.01 231.81 185.63Q233.20 184.25 235.60 184.25QNaN 184.25 239.39 185.63Q240.78 187.01 240.78 189.53L240.78 192.55Q240.78 195.05 239.38 196.44Q237.98 197.83 235.60 197.83M235.60 195.91Q237.02 195.91 237.82 195.12Q238.62 194.33 238.62 192.79L238.62 189.29Q238.62 187.75 237.82 186.96Q237.02 186.17 235.60 186.17Q234.21 186.17 233.39 186.96Q232.58 187.75 232.58 189.29L232.58 192.79Q232.58 194.33 233.39 195.12Q234.21 195.91 235.60 195.91" fill="white" fill-opacity="0.7"/>
<path d="M247.29 197.64L245.13 197.64L245.13 180.12L247.29 180.12L247.29 189.89L249.81 189.89L253.50 184.44L255.98 184.44L251.73 190.73L256.22 197.64L253.70 197.64L249.86 191.76L247.29 191.76" fill="white" fill-opacity="0.7"/>
<path d="M264.93 197.83L263.87 197.83Q261.66 197.83 260.45 196.84Q259.24 195.84 259.24 194.02L261.40 194.02Q261.40 194.93 262.05 195.44Q262.70 195.96 263.87 195.96L264.93 195.96Q266.13 195.96 266.79 195.43Q267.45 194.90 267.45 193.94Q267.45 192.24 265.89 192.02L262.24 191.50Q260.90 191.30 260.15 190.38Q259.41 189.46 259.41 187.94Q259.41 186.22 260.60 185.23Q261.78 184.25 263.87 184.25L264.93 184.25Q266.85 184.25 268.06 185.20Q269.27 186.14 269.37 187.68L267.18 187.68Q267.14 186.98 266.52 186.53Q265.91 186.07 264.93 186.07L263.87 186.07Q262.77 186.07 262.14 186.58Q261.52 187.08 261.52 187.94Q261.52 189.34 262.79 189.53L266.20 190.01Q269.56 190.49 269.56 193.94Q269.56 195.79 268.35 196.81Q267.14 197.83 264.93 197.83" fill="white" fill-opacity="0.7"/>
<path d="M290.37 197.64L288.21 197.64L288.21 184.44L290.37 184.44L290.37 186.96L290.39 186.96Q290.56 185.64 291.47 184.92Q292.38 184.20 293.90 184.20Q295.89 184.20 297.06 185.42Q298.24 186.65 298.24 188.76L298.24 197.64L296.08 197.64L296.08 189.14Q296.08 187.63 295.32 186.83Q294.57 186.02 293.27 186.02Q291.93 186.02 291.15 186.86Q290.37 187.70 290.37 189.24" fill="white" fill-opacity="0.7"/>
<path d="M307.60 197.83Q305.22 197.83 303.82 196.44Q302.42 195.05 302.42 192.55L302.42 189.53Q302.42 187.01 303.81 185.63Q305.20 184.25 307.60 184.25Q310 184.25 311.39 185.63Q312.78 187.01 312.78 189.53L312.78 192.55Q312.78 195.05 311.38 196.44Q309.98 197.83 307.60 197.83M307.60 195.91Q309.02 195.91 309.82 195.12Q310.62 194.33 310.62 192.79L310.62 189.29Q310.62 187.75 309.82 186.96Q309.02 186.17 307.60 186.17Q306.21 186.17 305.39 186.96Q304.58 187.75 304.58 189.29L304.58 192.79Q304.58 194.33 305.39 195.12Q306.21 195.91 307.60 195.91" fill="white" fill-opacity="0.7"/>
<path d="M327.16 197.64L323.32 197.64Q321.69 197.64 320.70 196.69Q319.72 195.74 319.72 194.16L319.72 186.41L315.93 186.41L315.93 184.44L319.72 184.44L319.72 180.72L321.88 180.72L321.88 184.44L327.28 184.44L327.28 186.41L321.88 186.41L321.88 194.16Q321.88 194.83 322.28 195.25Q322.67 195.67 323.32 195.67L327.16 195.67" fill="white" fill-opacity="0.7"/>
<path d="M342.52 197.64L331.24 197.64L331.24 195.67L335.92 195.67L335.92 186.41L331.72 186.41L331.72 184.44L338.08 184.44L338.08 195.67L342.52 195.67L342.52 197.64M336.76 182.06Q335.97 182.06 335.51 181.66Q335.06 181.25 335.06 180.55Q335.06 179.83 335.51 179.41Q335.97 178.99 336.76 178.99Q337.55 178.99 338.01 179.41Q338.46 179.83 338.46 180.55Q338.46 181.25 338.01 181.66Q337.55 182.06 336.76 182.06" fill="white" fill-opacity="0.7"/>
<path d="M350.92 197.64L348.76 197.64L348.76 188.21L344.92 188.21L344.92 186.24L348.76 186.24L348.76 183.48Q348.76 181.92 349.74 181.02Q350.73 180.12 352.46 180.12L356.32 180.12L356.32 182.09L352.46 182.09Q350.92 182.09 350.92 183.48L350.92 186.24L356.32 186.24L356.32 188.21L350.92 188.21" fill="white" fill-opacity="0.7"/>
<path d="M364.53 201.96L362.27 201.96L364.22 196.82L359.30 184.44L361.62 184.44L364.74 192.60Q364.94 193.08 365.10 193.61Q365.27 194.14 365.34 194.52Q365.42 194.14 365.58 193.61Q365.75 193.08 365.92 192.60L368.82 184.44L371.10 184.44" fill="white" fill-opacity="0.7"/>
<path d="M394.53 197.83L393.47 197.83Q391.26 197.83 390.05 196.84Q388.84 195.84 388.84 194.02L391 194.02Q391 194.93 391.65 195.44Q392.30 195.96 393.47 195.96L394.53 195.96Q395.73 195.96 396.39 195.43Q397.05 194.90 397.05 193.94Q397.05 192.24 395.49 192.02L391.84 191.50Q390.50 191.30 389.75 190.38Q389.01 189.46 389.01 187.94Q389.01 186.22 390.20 185.23Q391.38 184.25 393.47 184.25L394.53 184.25Q396.45 184.25 397.66 185.20Q398.87 186.14 398.97 187.68L396.78 187.68Q396.74 186.98 396.12 186.53Q395.51 186.07 394.53 186.07L393.47 186.07Q392.37 186.07 391.74 186.58Q391.12 187.08 391.12 187.94Q391.12 189.34 392.39 189.53L395.80 190.01Q399.16 190.49 399.16 193.94Q399.16 195.79 397.95 196.81Q396.74 197.83 394.53 197.83" fill="white" fill-opacity="0.7"/>
<path d="M407.73 201.96L405.47 201.96L407.42 196.82L402.50 184.44L404.82 184.44L407.94 192.60Q408.14 193.08 408.30 193.61Q408.47 194.14 408.54 194.52Q408.62 194.14 408.78 193.61Q408.95 193.08 409.12 192.60L412.02 184.44L414.30 184.44" fill="white" fill-opacity="0.7"/>
<path d="M423.33 197.83L422.27 197.83Q420.06 197.83 418.85 196.84Q417.64 195.84 417.64 194.02L419.80 194.02Q419.80 194.93 420.45 195.44Q421.10 195.96 422.27 195.96L423.33 195.96Q424.53 195.96 425.19 195.43Q425.85 194.90 425.85 193.94Q425.85 192.24 424.29 192.02L420.64 191.50Q419.30 191.30 418.55 190.38Q417.81 189.46 417.81 187.94Q417.81 186.22 419 185.23Q420.18 184.25 422.27 184.25L423.33 184.25Q425.25 184.25 426.46 185.20Q427.67 186.14 427.77 187.68L425.58 187.68Q425.54 186.98 424.92 186.53Q424.31 186.07 423.33 186.07L422.27 186.07Q421.17 186.07 420.54 186.58Q419.92 187.08 419.92 187.94Q419.92 189.34 421.19 189.53L424.60 190.01Q427.96 190.49 427.96 193.94Q427.96 195.79 426.75 196.81Q425.54 197.83 423.33 197.83" fill="white" fill-opacity="0.7"/>
<path d="M442.36 197.64L438.52 197.64Q436.89 197.64 435.90 196.69Q434.92 195.74 434.92 194.16L434.92 186.41L431.13 186.41L431.13 184.44L434.92 184.44L434.92 180.72L437.08 180.72L437.08 184.44L442.48 184.44L442.48 186.41L437.08 186.41L437.08 194.16Q437.08 194.83 437.48 195.25Q437.87 195.67 438.52 195.67L442.36 195.67" fill="white" fill-opacity="0.7"/>
<path d="M451.60 197.88Q449.27 197.88 447.84 196.48Q446.42 195.07 446.42 192.60L446.42 189.48Q446.42 187.01 447.84 185.60Q449.27 184.20 451.60 184.20Q453.16 184.20 454.32 184.82Q455.49 185.45 456.14 186.58Q456.78 187.70 456.78 189.24L456.78 191.59L448.53 191.59L448.53 192.84Q448.53 194.30 449.37 195.16Q450.21 196.01 451.60 196.01Q452.80 196.01 453.58 195.54Q454.36 195.07 454.53 194.28L456.69 194.28Q456.47 195.94 455.08 196.91Q453.69 197.88 451.60 197.88M448.53 189.24L448.53 189.91L454.67 189.91L454.67 189.24Q454.67 187.68 453.87 186.83Q453.06 185.98 451.60 185.98Q450.14 185.98 449.33 186.83Q448.53 187.68 448.53 189.24" fill="white" fill-opacity="0.7"/>
<path d="M462.26 197.64L460.24 197.64L460.24 184.44L462.11 184.44L462.11 186.19L462.16 186.19Q462.28 185.30 462.87 184.75Q463.46 184.20 464.37 184.20Q465.23 184.20 465.83 184.70Q466.43 185.21 466.70 186.07L466.72 186.07Q466.89 185.21 467.48 184.70Q468.06 184.20 468.98 184.20Q470.25 184.20 471 185.15Q471.76 186.10 471.76 187.61L471.76 197.64L469.74 197.64L469.74 187.58Q469.74 186.79 469.36 186.32Q468.98 185.86 468.30 185.86Q467.66 185.86 467.27 186.31Q466.89 186.77 466.89 187.56L466.89 197.64L465.11 197.64L465.11 187.58Q465.11 186.79 464.73 186.32Q464.34 185.86 463.70 185.86Q463.02 185.86 462.64 186.31Q462.26 186.77 462.26 187.56" fill="white" fill-opacity="0.7"/>
<path d="M494.80 197.83Q492.42 197.83 491.02 196.44Q489.62 195.05 489.62 192.55L489.62 189.53Q489.62 187.01 491.01 185.63Q492.40 184.25 494.80 184.25Q497.20 184.25 498.59 185.63Q499.98 187.01 499.98 189.53L499.98 192.55Q499.98 195.05 498.58 196.44Q497.18 197.83 494.80 197.83M494.80 195.91Q496.22 195.91 497.02 195.12Q497.82 194.33 497.82 192.79L497.82 189.29Q497.82 187.75 497.02 186.96Q496.22 186.17 494.80 186.17Q493.41 186.17 492.59 186.96Q491.78 187.75 491.78 189.29L491.78 192.79Q491.78 194.33 492.59 195.12Q493.41 195.91 494.80 195.91" fill="white" fill-opacity="0.7"/>
<path d="M509.32 197.64L507.16 197.64L507.16 188.21L503.32 188.21L503.32 186.24L507.16 186.24L507.16 183.48Q507.16 181.92 508.14 181.02Q509.13 180.12 510.86 180.12L514.72 180.12L514.72 182.09L510.86 182.09Q509.32 182.09 509.32 183.48L509.32 186.24L514.72 186.24L514.72 188.21L509.32 188.21" fill="white" fill-opacity="0.7"/>
<path d="M534.62 197.64L532.53 197.64L532.53 180.12L535.72 180.12L537.95 187.70L540.28 180.12L543.47 180.12L543.47 197.64L541.38 197.64L541.38 189.36Q541.38 188.18 541.42 186.66Q541.46 185.14 541.53 183.58Q541.60 182.02 541.70 180.77L538.86 189.82L536.99 189.82L534.28 180.98Q534.47 182.76 534.54 184.87Q534.62 186.98 534.62 189.36" fill="white" fill-opacity="0.7"/>
<path d="M551.25 197.88Q549.21 197.88 548.01 196.74Q546.81 195.60 546.81 193.75Q546.81 192.53 547.36 191.62Q547.91 190.70 548.90 190.19Q549.88 189.67 551.15 189.67L555.23 189.67L555.23 188.64Q555.23 186.07 552.42 186.07Q551.18 186.07 550.41 186.53Q549.64 186.98 549.59 187.80L547.43 187.80Q547.55 186.24 548.88 185.22Q550.22 184.20 552.42 184.20Q554.82 184.20 556.11 185.35Q557.39 186.50 557.39 188.57L557.39 197.64L555.26 197.64L555.26 195.24L555.21 195.24Q555.02 196.46 553.98 197.17Q552.95 197.88 551.25 197.88M551.78 196.06Q553.36 196.06 554.30 195.29Q555.23 194.52 555.23 193.20L555.23 191.35L551.39 191.35Q550.34 191.35 549.68 191.99Q549.02 192.62 549.02 193.68Q549.02 194.78 549.75 195.42Q550.48 196.06 551.78 196.06" fill="white" fill-opacity="0.7"/>
<path d="M563.97 197.64L561.81 197.64L561.81 184.44L563.97 184.44L563.97 186.96L563.99 186.96Q564.16 185.64 565.07 184.92Q565.98 184.20 567.50 184.20Q569.49 184.20 570.66 185.42Q571.84 186.65 571.84 188.76L571.84 197.64L569.68 197.64L569.68 189.14Q569.68 187.63 568.92 186.83Q568.17 186.02 566.87 186.02Q565.53 186.02 564.75 186.86Q563.97 187.70 563.97 189.24" fill="white" fill-opacity="0.7"/>
<path d="M580.05 197.88Q578.01 197.88 576.81 196.74Q575.61 195.60 575.61 193.75Q575.61 192.53 576.16 191.62Q576.71 190.70 577.70 190.19Q578.68 189.67 579.95 189.67L584.03 189.67L584.03 188.64Q584.03 186.07 581.22 186.07Q579.98 186.07 579.21 186.53Q578.44 186.98 578.39 187.80L576.23 187.80Q576.35 186.24 577.68 185.22Q579.02 184.20 581.22 184.20Q583.62 184.20 584.91 185.35Q586.19 186.50 586.19 188.57L586.19 197.64L584.06 197.64L584.06 195.24L584.01 195.24Q583.82 196.46 582.78 197.17Q581.75 197.88 580.05 197.88M580.58 196.06Q582.16 196.06 583.10 195.29Q584.03 194.52 584.03 193.20L584.03 191.35L580.19 191.35Q579.14 191.35 578.48 191.99Q577.82 192.62 577.82 193.68Q577.82 194.78 578.55 195.42Q579.28 196.06 580.58 196.06" fill="white" fill-opacity="0.7"/>
<path d="M595.96 201.96L592.26 201.96L592.26 199.99L595.98 199.99Q597.11 199.99 597.76 199.36Q598.41 198.72 598.41 197.64L598.41 196.44L598.46 194.28L598.38 194.28Q598.19 195.46 597.26 196.09Q596.32 196.73 594.90 196.73Q592.86 196.73 591.69 195.43Q590.51 194.14 590.51 191.88L590.51 189.10Q590.51 186.84 591.69 185.52Q592.86 184.20 594.90 184.20Q596.32 184.20 597.26 184.87Q598.19 185.54 598.38 186.72L598.43 186.72L598.43 184.44L600.57 184.44L600.57 197.64Q600.57 199.63 599.33 200.80Q598.10 201.96 595.96 201.96M595.55 194.93Q596.90 194.93 597.66 194.09Q598.43 193.25 598.43 191.76L598.43 189.24Q598.43 187.75 597.66 186.91Q596.90 186.07 595.55 186.07Q594.18 186.07 593.43 186.86Q592.67 187.66 592.67 189L592.67 192Q592.67 193.34 593.43 194.14Q594.18 194.93 595.55 194.93" fill="white" fill-opacity="0.7"/>
<path d="M610 197.88Q607.67 197.88 606.24 196.48Q604.82 195.07 604.82 192.60L604.82 189.48Q604.82 187.01 606.24 185.60Q607.67 184.20 610 184.20Q611.56 184.20 612.72 184.82Q613.89 185.45 614.54 186.58Q615.18 187.70 615.18 189.24L615.18 191.59L606.93 191.59L606.93 192.84Q606.93 194.30 607.77 195.16Q608.61 196.01 610 196.01Q611.20 196.01 611.98 195.54Q612.76 195.07 612.93 194.28L615.09 194.28Q614.87 195.94 613.48 196.91Q612.09 197.88 610 197.88M606.93 189.24L606.93 189.91L613.07 189.91L613.07 189.24Q613.07 187.68 612.27 186.83Q611.46 185.98 610 185.98Q608.54 185.98 607.73 186.83Q606.93 187.68 606.93 189.24" fill="white" fill-opacity="0.7"/>
<path d="M620.66 197.64L618.64 197.64L618.64 184.44L620.51 184.44L620.51 186.19L620.56 186.19Q620.68 185.30 621.27 184.75Q621.86 184.20 622.77 184.20Q623.63 184.20 624.23 184.70Q624.83 185.21 625.10 186.07L625.12 186.07Q625.29 185.21 625.88 184.70Q626.46 184.20 627.38 184.20Q628.65 184.20 629.40 185.15Q630.16 186.10 630.16 187.61L630.16 197.64L628.14 197.64L628.14 187.58Q628.14 186.79 627.76 186.32Q627.38 185.86 626.70 185.86Q626.06 185.86 625.67 186.31Q625.29 186.77 625.29 187.56L625.29 197.64L623.51 197.64L623.51 187.58Q623.51 186.79 623.13 186.32Q622.74 185.86 622.10 185.86Q621.42 185.86 621.04 186.31Q620.66 186.77 620.66 187.56" fill="white" fill-opacity="0.7"/>
<path d="M638.80 197.88Q636.47 197.88 635.04 196.48Q633.62 195.07 633.62 192.60L633.62 189.48Q633.62 187.01 635.04 185.60Q636.47 184.20 638.80 184.20Q640.36 184.20 641.52 184.82Q642.69 185.45 643.34 186.58Q643.98 187.70 643.98 189.24L643.98 191.59L635.73 191.59L635.73 192.84Q635.73 194.30 636.57 195.16Q637.41 196.01 638.80 196.01Q640 196.01 640.78 195.54Q641.56 195.07 641.73 194.28L643.89 194.28Q643.67 195.94 642.28 196.91Q640.89 197.88 638.80 197.88M635.73 189.24L635.73 189.91L641.87 189.91L641.87 189.24Q641.87 187.68 641.07 186.83Q640.26 185.98 638.80 185.98Q637.34 185.98 636.53 186.83Q635.73 187.68 635.73 189.24" fill="white" fill-opacity="0.7"/>
<path d="M650.37 197.64L648.21 197.64L648.21 184.44L650.37 184.44L650.37 186.96L650.39 186.96Q650.56 185.64 651.47 184.92Q652.38 184.20 653.90 184.20Q655.89 184.20 657.06 185.42Q658.24 186.65 658.24 188.76L658.24 197.64L656.08 197.64L656.08 189.14Q656.08 187.63 655.32 186.83Q654.57 186.02 653.27 186.02Q651.93 186.02 651.15 186.86Q650.37 187.70 650.37 189.24" fill="white" fill-opacity="0.7"/>
<path d="M672.76 197.64L668.92 197.64Q667.29 197.64 666.30 196.69Q665.32 195.74 665.32 194.16L665.32 186.41L661.53 186.41L661.53 184.44L665.32 184.44L665.32 180.72L667.48 180.72L667.48 184.44L672.88 184.44L672.88 186.41L667.48 186.41L667.48 194.16Q667.48 194.83 667.88 195.25Q668.27 195.67 668.92 195.67L672.76 195.67" fill="white" fill-opacity="0.7"/>
<path d="M692.61 197.64L690.40 197.64L694.96 180.12L697.86 180.12L702.40 197.64L700.22 197.64L699.06 192.98L693.76 192.98L692.61 197.64M695.54 185.74L694.19 191.16L698.61 191.16L697.26 185.76Q696.88 184.22 696.66 183.19Q696.45 182.16 696.40 181.85Q696.35 182.16 696.14 183.19Q695.92 184.22 695.54 185.74" fill="white" fill-opacity="0.7"/>
<path d="M707.97 197.64L705.81 197.64L705.81 180.12L711.45 180.12Q713.90 180.12 715.35 181.52Q716.80 182.93 716.80 185.28Q716.80 187.63 715.35 189.04Q713.90 190.44 711.45 190.44L707.97 190.44L707.97 197.64M707.97 182.06L707.97 188.50L711.45 188.50Q712.86 188.50 713.72 187.62Q714.57 186.74 714.57 185.28Q714.57 183.79 713.72 182.93Q712.86 182.06 711.45 182.06" fill="white" fill-opacity="0.7"/>
<path d="M729.88 197.64L720.52 197.64L720.52 195.67L724.10 195.67L724.10 182.09L720.52 182.09L720.52 180.12L729.88 180.12L729.88 182.09L726.30 182.09L726.30 195.67L729.88 195.67" fill="white" fill-opacity="0.7"/>
<path d="M754 197.88Q751.67 197.88 750.24 196.48Q748.82 195.07 748.82 192.60L748.82 189.48Q748.82 187.01 750.24 185.60Q751.67 184.20 754 184.20Q755.56 184.20 756.72 184.82Q757.89 185.45 758.54 186.58Q759.18 187.70 759.18 189.24L759.18 191.59L750.93 191.59L750.93 192.84Q750.93 194.30 751.77 195.16Q752.61 196.01 754 196.01Q755.20 196.01 755.98 195.54Q756.76 195.07 756.93 194.28L759.09 194.28Q758.87 195.94 757.48 196.91Q756.09 197.88 754 197.88M750.93 189.24L750.93 189.91L757.07 189.91L757.07 189.24Q757.07 187.68 756.27 186.83Q755.46 185.98 754 185.98Q752.54 185.98 751.73 186.83Q750.93 187.68 750.93 189.24" fill="white" fill-opacity="0.7"/>
<path d="M769.82 197.64L766.98 197.64L762.50 184.44L764.82 184.44L767.70 193.32Q767.97 194.11 768.16 194.84Q768.35 195.58 768.45 195.98Q768.57 195.58 768.74 194.84Q768.90 194.11 769.14 193.32L772.02 184.44L774.30 184.44" fill="white" fill-opacity="0.7"/>
<path d="M782.80 197.88Q780.47 197.88 779.04 196.48Q777.62 195.07 777.62 192.60L777.62 189.48Q777.62 187.01 779.04 185.60Q780.47 184.20 782.80 184.20Q784.36 184.20 785.52 184.82Q786.69 185.45 787.34 186.58Q787.98 187.70 787.98 189.24L787.98 191.59L779.73 191.59L779.73 192.84Q779.73 194.30 780.57 195.16Q781.41 196.01 782.80 196.01Q784 196.01 784.78 195.54Q785.56 195.07 785.73 194.28L787.89 194.28Q787.67 195.94 786.28 196.91Q784.89 197.88 782.80 197.88M779.73 189.24L779.73 189.91L785.87 189.91L785.87 189.24Q785.87 187.68 785.07 186.83Q784.26 185.98 782.80 185.98Q781.34 185.98 780.53 186.83Q779.73 187.68 779.73 189.24" fill="white" fill-opacity="0.7"/>
<path d="M794.37 197.64L792.21 197.64L792.21 184.44L794.37 184.44L794.37 186.96L794.39 186.96Q794.56 185.64 795.47 184.92Q796.38 184.20 797.90 184.20Q799.89 184.20 801.06 185.42Q802.24 186.65 802.24 188.76L802.24 197.64L800.08 197.64L800.08 189.14Q800.08 187.63 799.32 186.83Q798.57 186.02 797.27 186.02Q795.93 186.02 795.15 186.86Q794.37 187.70 794.37 189.24" fill="white" fill-opacity="0.7"/>
<path d="M816.76 197.64L812.92 197.64Q811.29 197.64 810.30 196.69Q809.32 195.74 809.32 194.16L809.32 186.41L805.53 186.41L805.53 184.44L809.32 184.44L809.32 180.72L811.48 180.72L811.48 184.44L816.88 184.44L816.88 186.41L811.48 186.41L811.48 194.16Q811.48 194.83 811.88 195.25Q812.27 195.67 812.92 195.67L816.76 195.67" fill="white" fill-opacity="0.7"/>
<path d="M826.53 197.83L825.47 197.83Q823.26 197.83 822.05 196.84Q820.84 195.84 820.84 194.02L823 194.02Q823 194.93 823.65 195.44Q824.30 195.96 825.47 195.96L826.53 195.96Q827.73 195.96 828.39 195.43Q829.05 194.90 829.05 193.94Q829.05 192.24 827.49 192.02L823.84 191.50Q822.50 191.30 821.75 190.38Q821.01 189.46 821.01 187.94Q821.01 186.22 822.20 185.23Q823.38 184.25 825.47 184.25L826.53 184.25Q828.45 184.25 829.66 185.20Q830.87 186.14 830.97 187.68L828.78 187.68Q828.74 186.98 828.12 186.53Q827.51 186.07 826.53 186.07L825.47 186.07Q824.37 186.07 823.74 186.58Q823.12 187.08 823.12 187.94Q823.12 189.34 824.39 189.53L827.80 190.01Q831.16 190.49 831.16 193.94Q831.16 195.79 829.95 196.81Q828.74 197.83 826.53 197.83" fill="white" fill-opacity="0.7"/>
<path d="M840.40 197.88Q839.51 197.88 838.97 197.35Q838.43 196.82 838.43 195.98Q838.43 195.10 838.97 194.54Q839.51 193.99 840.40 193.99Q841.29 193.99 841.83 194.54Q842.37 195.10 842.37 195.98Q842.37 196.82 841.83 197.35Q841.29 197.88 840.40 197.88" fill="white" fill-opacity="0.7"/>
<path d="M76.11 136.06L66.42 136.06L84.56 65.98L97.14 65.98L115.18 136.06L105.49 136.06L101.07 117.82L80.53 117.82L76.11 136.06M87.54 88.92L82.45 109.95L99.15 109.95L94.16 89.02Q92.72 83.26 91.86 79.23Q90.99 75.20 90.80 73.76Q90.61 75.20 89.74 79.23Q88.88 83.26 87.54 88.92M146.86 136.06L128.05 136.06L128.05 65.98L146.86 65.98Q153.68 65.98 158.72 68.62Q163.76 71.26 166.54 76.01Q169.33 80.76 169.33 87.20L169.33 114.75Q169.33 121.18 166.54 125.98Q163.76 130.78 158.72 133.42Q153.68 136.06 146.86 136.06M137.55 74.43L137.55 127.61L146.86 127.61Q152.91 127.61 156.37 124.16Q159.82 120.70 159.82 114.75L159.82 87.20Q159.82 81.24 156.37 77.84Q152.91 74.43 146.86 74.43L137.55 74.43M210.80 136.06L201.30 136.06L201.30 110.04L180.27 65.98L190.35 65.98L203.31 93.63Q204.46 96.12 205.18 98.14Q205.90 100.16 206.10 101.02Q206.38 100.16 207.10 98.14Q207.82 96.12 209.07 93.63L221.94 65.98L231.73 65.98L210.80 110.04L210.80 136.06M284.91 136.06L244.11 136.06L244.11 65.98L284.91 65.98L284.91 74.52L253.52 74.52L253.52 95.36L281.55 95.36L281.55 103.61L253.52 103.61L253.52 127.52L284.91 127.52L284.91 136.06M309.58 136.06L300.66 136.06L300.66 65.98L312.94 65.98L333.87 125.12Q333.58 122.62 333.34 118.92Q333.10 115.23 332.96 111.24Q332.82 107.26 332.82 103.71L332.82 65.98L341.84 65.98L341.84 136.06L329.46 136.06L308.72 76.92Q308.91 79.42 309.10 83.02Q309.30 86.62 309.44 90.56Q309.58 94.49 309.58 97.95L309.58 136.06M423.15 136.06L414.13 136.06L414.13 65.98L427.57 65.98L436.21 96.22L445.23 65.98L458.77 65.98L458.77 136.06L449.65 136.06L449.65 103.90Q449.65 98.81 449.84 92.62Q450.03 86.43 450.37 80.24Q450.70 74.04 451.09 69.05L440.14 104.96L432.08 104.96L421.52 69.92Q422.38 76.92 422.77 85.52Q423.15 94.11 423.15 103.90L423.15 136.06M479.31 136.06L469.62 136.06L487.76 65.98L500.34 65.98L518.38 136.06L508.69 136.06L504.27 117.82L483.73 117.82L479.31 136.06M490.74 88.92L485.65 109.95L502.35 109.95L497.36 89.02Q495.92 83.26 495.06 79.23Q494.19 75.20 NaN 73.76Q493.81 75.20 492.94 79.23Q492.08 83.26 490.74 88.92M539.98 136.06L531.06 136.06L531.06 65.98L543.34 65.98L564.27 125.12Q563.98 122.62 563.74 118.92Q563.50 115.23 563.36 111.24Q563.22 107.26 563.22 103.71L563.22 65.98L572.24 65.98L572.24 136.06L559.86 136.06L539.12 76.92Q539.31 79.42 539.50 83.02Q539.70 86.62 539.84 90.56Q539.98 94.49 539.98 97.95L539.98 136.06M594.51 136.06L584.82 136.06L602.96 65.98L615.54 65.98L633.58 136.06L623.89 136.06L619.47 117.82L598.93 117.82L594.51 136.06M605.94 88.92L600.85 109.95L617.55 109.95L612.56 89.02Q611.12 83.26 610.26 79.23Q609.39 75.20 609.20 73.76Q609.01 75.20 608.14 79.23Q607.28 83.26 605.94 88.92M667.18 137.02Q657.49 137.02 651.78 131.60Q646.06 126.17 646.06 116.67L646.06 85.28Q646.06 75.87 651.78 70.44Q657.49 65.02 667.18 65.02Q676.78 65.02 682.50 70.49Q688.21 75.96 688.21 85.28L678.70 85.28Q678.70 79.61 675.63 76.54Q672.56 73.47 667.18 73.47Q661.71 73.47 658.64 76.54Q655.57 79.61 655.57 85.28L655.57 116.67Q655.57 122.43 658.64 125.50Q661.71 128.57 667.18 128.57Q672.56 128.57 675.63 125.50Q678.70 122.43 678.70 116.67L678.70 107.55L665.07 107.55L665.07 99.10L688.21 99.10L688.21 116.67Q688.21 126.08 682.50 131.55Q676.78 137.02 667.18 137.02M745.71 136.06L704.91 136.06L704.91 65.98L745.71 65.98L745.71 74.52L714.32 74.52L714.32 95.36L742.35 95.36L742.35 103.61L714.32 103.61L714.32 127.52L745.71 127.52L745.71 136.06M768.75 136.06L759.73 136.06L759.73 65.98L773.17 65.98L781.81 96.22L790.83 65.98L804.37 65.98L804.37 136.06L795.25 136.06L795.25 103.90Q795.25 98.81 795.44 92.62Q795.63 86.43 795.97 80.24Q796.30 74.04 796.69 69.05L785.74 104.96L777.68 104.96L767.12 69.92Q767.98 76.92 768.37 85.52Q768.75 94.11 768.75 103.90L768.75 136.06M860.91 136.06L820.11 136.06L820.11 65.98L860.91 65.98L860.91 74.52L829.52 74.52L829.52 95.36L857.55 95.36L857.55 103.61L829.52 103.61L829.52 127.52L860.91 127.52L860.91 136.06M885.58 136.06L876.66 136.06L876.66 65.98L888.94 65.98L909.87 125.12Q909.58 122.62 909.34 118.92Q909.10 115.23 908.96 111.24Q908.82 107.26 908.82 103.71L908.82 65.98L917.84 65.98L917.84 136.06L905.46 136.06L884.72 76.92Q884.91 79.42 885.10 83.02Q885.30 86.62 885.44 90.56Q885.58 94.49 885.58 97.95L885.58 136.06M959.60 136.06L950.10 136.06L950.10 74.62L931.09 74.62L931.09 65.98L978.51 65.98L978.51 74.62L959.60 74.62L959.60 136.06M1000.78 136.06L991.86 136.06L991.86 65.98L1004.14 65.98L1025.07 125.12Q1024.78 122.62 1024.54 118.92Q1024.30 115.23 1024.16 111.24Q1024.02 107.26 1024.02 103.71L1024.02 65.98L1033.04 65.98L1033.04 136.06L1020.66 136.06L999.92 76.92Q1000.11 79.42 1000.30 83.02Q1000.50 86.62 1000.64 90.56Q1000.78 94.49 1000.78 97.95L1000.78 136.06MNaN 137.02Q1060.40 137.02 1054.83 131.45Q1049.26 125.88 1049.26 115.71L1049.26 86.24Q1049.26 76.16 1054.83 70.59Q1060.40 65.02 NaN 65.02Q1079.60 65.02 1085.17 70.54Q1090.74 76.06 1090.74 86.24L1090.74 115.71Q1090.74 125.88 1085.17 131.45Q1079.60 137.02 NaN 137.02MNaN 128.57Q1075.38 128.57 1078.30 125.50Q1081.23 122.43 1081.23 116.67L1081.23 85.28Q1081.23 79.61 1078.35 76.54Q1075.47 73.47 NaN 73.47Q1064.53 73.47 1061.65 76.54Q1058.77 79.61 1058.77 85.28L1058.77 116.67Q1058.77 122.43 1061.70 125.50Q1064.62 128.57 NaN 128.57M1132.40 136.06L1122.90 136.06L1122.90 74.62L1103.89 74.62L1103.89 65.98L1151.31 65.98L1151.31 74.62L1132.40 74.62L1132.40 136.06M1204.30 136.06L1166.10 136.06L1166.10 127.42L1180.40 127.42L1180.40 74.62L1166.10 74.62L1166.10 65.98L1204.30 65.98L1204.30 74.62L1190 74.62L1190 127.42L1204.30 127.42L1204.30 136.06M1232.24 136.06L1222.74 136.06L1222.74 65.98L1264.59 65.98L1264.59 74.72L1232.05 74.72L1232.05 96.80L1262.10 96.80L1262.10 105.44L1232.24 105.44L1232.24 136.06M1319.50 136.06L1281.30 136.06L1281.30 127.42L1295.60 127.42L1295.60 74.62L1281.30 74.62L1281.30 65.98L1319.50 65.98L1319.50 74.62L1305.20 74.62L1305.20 127.42L1319.50 127.42L1319.50 136.06M1358.77 137.02Q1349.07 137.02 1343.36 131.60Q1337.65 126.17 1337.65 116.67L1337.65 85.28Q1337.65 75.87 1343.36 70.44Q1349.07 65.02 1358.77 65.02Q1368.37 65.02 1374.08 70.49Q1379.79 75.96 1379.79 85.28L1370.29 85.28Q1370.29 79.61 1367.22 76.54Q1364.14 73.47 1358.77 73.47Q1353.30 73.47 1350.22 76.54Q1347.15 79.61 1347.15 85.28L1347.15 116.67Q1347.15 122.43 1350.22 125.50Q1353.30 128.57 1358.77 128.57Q1364.14 128.57 1367.22 125.50Q1370.29 122.43 1370.29 116.67L1379.79 116.67Q1379.79 126.08 1374.08 131.55Q1368.37 137.02 1358.77 137.02M1400.91 136.06L1391.22 136.06L1409.36 65.98L1421.94 65.98L1439.98 136.06L1430.29 136.06L1425.87 117.82L1405.33 117.82L1400.91 136.06M1412.34 88.92L1407.25 109.95L1423.95 109.95L1418.96 89.02Q1417.52 83.26 1416.66 79.23Q1415.79 75.20 1415.60 73.76Q1415.41 75.20 1414.54 79.23Q1413.68 83.26 1412.34 88.92M1478 136.06L1468.50 136.06L1468.50 74.62L1449.49 74.62L1449.49 65.98L1496.91 65.98L1496.91 74.62L1478 74.62L1478 136.06M1549.90 136.06L1511.70 136.06L1511.70 127.42L1526 127.42L1526 74.62L1511.70 74.62L1511.70 65.98L1549.90 65.98L1549.90 74.62L1535.60 74.62L1535.60 127.42L1549.90 127.42L1549.90 136.06M1588.40 137.02Q1578.80 137.02 1573.23 131.45Q1567.66 125.88 1567.66 115.71L1567.66 86.24Q1567.66 76.16 1573.23 70.59Q1578.80 65.02 1588.40 65.02Q1598 65.02 1603.57 70.54Q1609.14 76.06 1609.14 86.24L1609.14 115.71Q1609.14 125.88 1603.57 131.45Q1598 137.02 1588.40 137.02M1588.40 128.57Q1593.78 128.57 1596.70 125.50Q1599.63 122.43 1599.63 116.67L1599.63 85.28Q1599.63 79.61 1596.75 76.54Q1593.87 73.47 1588.40 73.47Q1582.93 73.47 1580.05 76.54Q1577.17 79.61 1577.17 85.28L1577.17 116.67Q1577.17 122.43 1580.10 125.50Q1583.02 128.57 1588.40 128.57M1634.38 136.06L1625.46 136.06L1625.46 65.98L1637.74 65.98L1658.67 125.12Q1658.38 122.62 1658.14 118.92Q1657.90 115.23 1657.76 111.24Q1657.62 107.26 1657.62 103.71L1657.62 65.98L1666.64 65.98L1666.64 136.06L1654.26 136.06L1633.52 76.92Q1633.71 79.42 1633.90 83.02Q1634.10 86.62 1634.24 90.56Q1634.38 94.49 1634.38 97.95L1634.38 136.06M1703.98 137.02Q1693.62 137.02 1687.47 131.60Q1681.33 126.17 1681.33 116.67L1690.83 116.67Q1690.83 122.24 1694.38 125.40Q1697.94 128.57 1703.98 128.57Q1709.74 128.57 1713.15 125.36Q1716.56 122.14 1716.56 116.76Q1716.56 112.73 1714.35 109.71Q1712.14 106.68 1708.11 105.63L1697.74 102.84Q1690.93 100.92 1686.94 95.88Q1682.96 90.84 1682.96 83.93Q1682.96 78.27 1685.50 74Q1688.05 69.72 1692.66 67.37Q1697.26 65.02 1703.31 65.02Q1709.46 65.02 1714.11 67.37Q1718.77 69.72 1721.36 73.95Q1723.95 78.17 1723.95 83.74L1714.54 83.74Q1714.54 79.13 1711.42 76.25Q1708.30 73.37 1703.31 73.37Q1698.32 73.37 1695.30 76.25Q1692.27 79.13 1692.27 83.74Q1692.27 87.48 1694.29 90.03Q1696.30 92.57 1699.95 93.63L1710.61 96.51Q1717.81 98.43 1721.84 103.85Q1725.87 109.28 1725.87 116.76Q1725.87 122.91 1723.18 127.47Q1720.50 132.03 1715.55 134.52Q1710.61 137.02 1703.98 137.02M1782.51 136.06L1741.71 136.06L1741.71 65.98L1782.51 65.98L1782.51 74.52L1751.12 74.52L1751.12 95.36L1779.15 95.36L1779.15 103.61L1751.12 103.61L1751.12 127.52L1782.51 127.52L1782.51 136.06M1807.95 136.06L1798.54 136.06L1798.54 65.98L1820.24 65.98Q1826.67 65.98 1831.47 68.52Q1836.27 71.07 1838.96 75.63Q1841.65 80.19 1841.65 86.33Q1841.65 93.44 1838.05 98.52Q1834.45 103.61 1828.50 105.72L1842.61 136.06L1832.14 136.06L1818.80 106.78L1807.95 106.78L1807.95 136.06M1807.95 74.43L1807.95 98.33L1820.24 98.33Q1825.62 98.33 1828.74 95.07Q1831.86 91.80 1831.86 86.43Q1831.86 80.96 1828.69 77.69Q1825.52 74.43 1820.24 74.43L1807.95 74.43M1882.74 136.06L1869.97 136.06L1852.02 65.98L1861.81 65.98L1873.42 113.21Q1874.58 117.72 1875.39 121.90Q1876.21 126.08 1876.59 128.28Q1876.88 126.08 1877.79 121.85Q1878.70 117.63 1879.76 113.12L1890.99 65.98L1900.78 65.98L1882.74 136.06M1953.10 136.06L1914.90 136.06L1914.90 127.42L1929.20 127.42L1929.20 74.62L1914.90 74.62L1914.90 65.98L1953.10 65.98L1953.10 74.62L1938.80 74.62L1938.80 127.42L1953.10 127.42L1953.10 136.06M1992.37 137.02Q1982.67 137.02 1976.96 131.60Q1971.25 126.17 1971.25 116.67L1971.25 85.28Q1971.25 75.87 1976.96 70.44Q1982.67 65.02 1992.37 65.02Q2001.97 65.02 2007.68 70.49Q2013.39 75.96 2013.39 85.28L2003.89 85.28Q2003.89 79.61 2000.82 76.54Q1997.74 73.47 1992.37 73.47Q1986.90 73.47 1983.82 76.54Q1980.75 79.61 1980.75 85.28L1980.75 116.67Q1980.75 122.43 1983.82 125.50Q1986.90 128.57 1992.37 128.57Q1997.74 128.57 2000.82 125.50Q2003.89 122.43 2003.89 116.67L2013.39 116.67Q2013.39 126.08 2007.68 131.55Q2001.97 137.02 1992.37 137.02M2070.51 136.06L2029.71 136.06L2029.71 65.98L2070.51 65.98L2070.51 74.52L2039.12 74.52L2039.12 95.36L2067.15 95.36L2067.15 103.61L2039.12 103.61L2039.12 127.52L2070.51 127.52L2070.51 136.06M2170.74 136.06L2157.97 136.06L2140.02 65.98L2149.81 65.98L2161.42 113.21Q2162.58 117.72 2163.39 121.90Q2164.21 126.08 2164.59 128.28Q2164.88 126.08 2165.79 121.85Q2166.70 117.63 2167.76 113.12L2178.99 65.98L2188.78 65.98L2170.74 136.06M2245.33 136.06L2201.74 136.06L2201.74 127.42L2220.46 127.42L2220.46 74.52L2201.65 88.54L2201.65 77.79L2217.58 65.98L2229.97 65.98L2229.97 127.42L2245.33 127.42" fill="url(#paint2_linear_0_1)"/>
<g id="Group 1">
<rect id="Rectangle 1" x="26" y="168" width="12" height="184" rx="5" fill="url(#paint3_linear_0_1)" fill-opacity="0.9"/>
</g>
<g id="Group 1_2">
<rect id="Rectangle 2" x="26" y="38" width="12" height="119" rx="5" fill="url(#paint4_linear_0_1)" fill-opacity="0.9"/>
</g>
<ellipse id="Ellipse 1" cx="148.5" cy="573" rx="215.5" ry="214" fill="url(#paint5_linear_0_1)" fill-opacity="0.4"/>
<rect id="Rectangle 3" x="1229" y="48" width="300" height="300" rx="25" fill="#FFFBFB" fill-opacity="0.9"/>
<g id="placeholder-logo"><g transform="translate(1229,48) translate(0.0,60.0) scale(1.2000)"><g fill="#666666">
  <path d="m88.05,27.65c-3.15,4 -3.2,51.2 -0.05,54.35c2.75,2.75 71.7,3.15 74.45,0.45c2.85,-2.9 2.3,-53.85 -0.65,-55.9c-1.95,-1.35 -7.15,-1.55 -36.95,-1.55l-34.7,0l-2.1,2.65zm69.45,3.35c0.65,0 1,8.6 1,23.75l0,23.75l-33,0l-33,0l-0.25,-23c-0.15,-12.6 -0.1,-23.45 0.15,-24.1c0.35,-0.85 8.9,-1.05 32.25,-0.75c17.55,0.2 32.3,0.35 32.85,0.35z"/>
  <path d="m99.15,37.3c-6.85,7.35 4.25,17.35 11.4,10.25c1.35,-1.35 2.45,-3.65 2.45,-5.05c0,-6.45 -9.35,-9.95 -13.85,-5.2z"/>
  <path d="m135,42.5c-0.7,0.85 -5.25,5.15 -10.1,9.6l-8.85,8.1l-3.2,-3.2l-3.15,-3.15l-6.35,6.3c-5.55,5.5 -6.35,6.75 -6.35,10.05l0,3.8l28.5,0l28.5,0l0,-8.6l0,-8.55l-8.15,-7.7c-9.35,-8.85 -9.15,-8.7 -10.85,-6.65zm7.25,15.2c0.95,0.9 1.75,2.9 1.75,4.45c6.35,-5.05 4.75,-7.15 4.9,-11.55c0.95,0 0,0 0,0l-6.65,7.1z"/>
  <path d="m53.65,110.75c0.1,4.8 0.45,8.65 0.75,8.5c0.35,-0.15 1.3,-0.25 2.1,-0.25c1.1,0 1.5,-1.2 1.5,-4.75l0,-4.75l3.25,5c4.9,7.5 6.2,6.75 6.55,-3.75c0.25,-8.15 0.15,-8.75 -1.7,-8.75c-1.65,0 -2.05,0.8 -2.3,4.75l-0.3,4.75l-2.8,-4.75c-4.85,-8.25 -7.25,-6.9 -7.05,4z"/>
  <path d="m91,108.9c0,9.65 0.3,10.1 6.1,10.1c5.8,0 7.15,-2.65 1.65,-3.2l-3.25,-0.3l-0.3,-6.75c-0.25,-5.95 -0.55,-6.75 -2.25,-6.75c-1.75,0 -1.95,0.7 -1.95,6.9z"/>
  <path d="m151,102.45c0,0.25 1,2.15 2.25,4.2c1.2,2.1 2.45,5.8 2.75,8.25c0.65,5.9 4,6.95 4,1.25c0.05,-2.1 1.25,-5.85 2.95,-8.9l2.9,-5.25l-2.5,0c-1.8,0 -2.8,0.85 -3.75,3.1l-1.3,3.05l-1.25,-3.05c-1.1,-2.6 -6.05,-4.8 -6.05,-2.65z"/>
  <path d="m191,107.45c0,9.05 3.4,8.85 4.25,-0.2c0.45,-5 0.35,-5.25 -1.9,-5.25c-2.2,0 -2.35,0.4 -2.35,5.45z"/>
  <path d="m180.8,104.75c-1.3,5.35 0.65,13.6 3.45,14.35c2.3,0.6 2.75,0.4 2.75,-1.2c0,-1.05 -0.45,-1.9 -1,-1.9c-0.55,0 -1,-1.6 -1,-3.5c0,-1.95 0.45,-3.5 1,-3.5c0.55,0 1,-0.7 1,-1.5c0,-0.85 -0.45,-1.5 -1,-1.5c-0.55,0 -1,-0.7 -1,-1.5c0,-2.1 -3.65,-1.9 -4.2,0.25z"/>
  <path d="m71.55,106.55c-2.2,2.25 -2.05,9.7 0.3,11.8c4.5,4.1 10.15,0.75 10.15,-6.1c0,-4.85 -2,-7.25 -6,-7.25c-1.55,0 -3.55,0.7 -4.45,1.55zm6.25,5.8c0.25,3.05 0,3.65 -1.6,3.65c-2.3,0 -3.25,-2.65 -2.05,-5.85c1.25,-3.35 3.3,-2.1 3.65,2.2z"/>
  <path d="m105.75,106.1c-2.5,1.45 -2.45,9.95 0.1,12.25c4.3,3.9 10.15,0.35 10.15,-6.2c0,-6 -5.15,-9.05 -10.25,-6.05zm6.05,6.25c0.25,3.05 0,3.65 -1.6,3.65c-2.3,0 -3.25,-2.65 -2.05,-5.85c1.25,-3.35 3.3,-2.1 3.65,2.2z"/>
  <path d="m119.2,106.2c-3.8,3.8 -0.4,12.55 4.4,11.35c1.9,-0.45 2.45,-0.3 2.15,0.65c-0.25,0.7 -1.55,1.2 -2.85,1.1c-4.05,-0.3 -5.35,0.45 -3.85,2.25c0.85,1.05 2.6,1.45 5.35,1.25l4.1,-0.3l0.3,-8.75l0.3,-8.75l-4.35,0c-2.4,0 -4.9,0.55 -5.55,1.2zm6.6,4.45c0.4,2.85 -2.15,4.85 -3.75,2.95c-0.9,-1.1 -0.9,-2 -0.05,-3.6c1.35,-2.5 3.4,-2.15 3.8,0.65z"/>
  <path d="m133.55,106.55c-2.2,2.25 -2.05,9.7 0.3,11.8c4.5,4.1 10.15,0.75 10.15,-6.1c0,-4.85 -2,-7.25 -6,-7.25c-1.55,0 -3.55,0.7 -4.45,1.55zm6.25,5.8c0.25,3.05 0,3.65 -1.6,3.65c-2.3,0 -3.25,-2.65 -2.05,-5.85c1.25,-3.35 3.3,-2.1 3.65,2.2z"/>
  <path d="m167.65,106.85c-3.9,4.3 -0.75,13.15 4.7,13.15c2.4,0 5.65,-2.75 5.65,-4.85c0,-1.4 -2.65,-1.55 -3.5,-0.15c-0.95,1.55 -4.5,1.15 -4.5,-0.5c0,-1.1 1.1,-1.5 4,-1.5c3.15,0 4,-0.35 4,-1.8c0,-5.3 -6.85,-8.25 -10.35,-4.35z"/>
  <path d="m191,117.5c0,2.15 0.4,2.6 2.25,2.3c1.5,-0.2 2.25,-1 2.25,-2.3c0,-1.3 -0.75,-2.1 -2.25,-2.3c-1.85,-0.3 -2.25,0.15 -2.25,2.3z"/>
 </g></g></g>
</g>
<defs>
<linearGradient id="paint0_linear_0_1" x1="0" y1="198" x2="1584" y2="198" gradientUnits="userSpaceOnUse">
<stop stop-color="#3D052C"/>
<stop offset="1"/>
</linearGradient>
<linearGradient id="paint1_linear_0_1" x1="323" y1="-224" x2="323" y2="352" gradientUnits="userSpaceOnUse">
<stop stop-color="#28F6F2" stop-opacity="0.4"/>
<stop offset="1" stop-color="#17908E" stop-opacity="0.7"/>
</linearGradient>
<linearGradient id="paint2_linear_0_1" x1="148.5" y1="38" x2="148.5" y2="140" gradientUnits="userSpaceOnUse">
<stop stop-color="white"/>
<stop offset="1" stop-color="#999999"/>
</linearGradient>
<linearGradient id="paint3_linear_0_1" x1="38" y1="260" x2="26" y2="260" gradientUnits="userSpaceOnUse">
<stop stop-color="#D9D9D9"/>
<stop offset="1" stop-color="#737373"/>
</linearGradient>
<linearGradient id="paint4_linear_0_1" x1="38" y1="97.5" x2="26" y2="97.5" gradientUnits="userSpaceOnUse">
<stop stop-color="#D9D9D9"/>
<stop offset="1" stop-color="#737373"/>
</linearGradient>
<linearGradient id="paint5_linear_0_1" x1="27.5" y1="434.5" x2="148.5" y2="787" gradientUnits="userSpaceOnUse">
<stop stop-color="#2E21BC"/>
<stop offset="1" stop-color="#150F56"/>
</linearGradient>
<clipPath id="clip0_0_1">
<rect width="1584" height="396" fill="white"/>
</clipPath>
</defs>
</svg>
